<?xml version="1.0" encoding="UTF-8"?>
<svg id="Layer_1" xmlns="http://www.w3.org/2000/svg" version="1.1" viewBox="0 0 87.4 60.4">
  <!-- Generator: Adobe Illustrator 29.5.1, SVG Export Plug-In . SVG Version: 2.1.0 Build 141)  -->
  <defs>
    <style>
      .st0 {
        fill: #231f20;
      }
    </style>
  </defs>
  <path id="Union_26" class="st0" d="M47.9,58.9c-.9-2.9-.8-6,.5-8.7,3-4.9,7.9-8.3,13.6-9.4,8.3-2.1,15.3-7.6,19.3-15.2,1.1-2.3,1.9-4.8,2.3-7.3,6.9,6.7,4.3,20.5-6.1,31.1-5.8,6.3-13.7,10.2-22.1,11h-.6c-2.4,0-4.7-.4-6.9-1.4h0ZM14.9,46.8C0,33.1-4.5,14.4,5,5.1c0,0,.2-.1.2-.2,1.3,6.6,6.7,23,30,28.9,1.8.4,3.5,1,5.3,1.6-4.1,9.2-3.5,18.5,2.5,23.7.2.2.4.4.7.5-10.7-.9-20.9-5.4-28.7-12.8h-.1ZM50.8,25.6c5.8-6.3,13.7-10.2,22.1-11h.7c2.5,0,4.9.5,7.1,1.6-.2,3.4-2.1,16.5-19.7,21.9-6.5,1.4-12.1,5.3-15.4,11-1.1,2.2-1.5,4.7-1.4,7.1-6.3-6.9-3.6-20.3,6.6-30.6h0ZM35.9,31C11.5,24.9,8.3,6.8,7.9,2.8,11.2.9,14.8,0,18.6,0c11.4.5,22.2,5.1,30.3,13.1,1.9,1.7,3.7,3.6,5.3,5.6-2.1,1.5-4,3.1-5.8,5-2.7,2.7-5,5.8-6.8,9.1-1.9-.7-3.8-1.3-5.8-1.8h0Z"/>
</svg>