<?xml version="1.0" encoding="UTF-8"?>
<svg id="Layer_1" xmlns="http://www.w3.org/2000/svg" version="1.1" viewBox="0 0 175.1 168.5">
  <!-- Generator: Adobe Illustrator 29.5.1, SVG Export Plug-In . SVG Version: 2.1.0 Build 141)  -->
  <defs>
    <style>
      .st0 {
        fill: #231f20;
      }

      .st1 {
        fill: none;
        stroke: #231f20;
      }
    </style>
  </defs>
  <ellipse class="st0" cx="56.1" cy="153.4" rx="16.3" ry="15"/>
  <ellipse class="st1" cx="56.1" cy="153.4" rx="13.6" ry="12.3"/>
  <ellipse class="st0" cx="135.2" cy="153.4" rx="16.3" ry="15"/>
  <ellipse class="st1" cx="135.2" cy="153.4" rx="13.6" ry="12.3"/>
  <path id="Path_105929" class="st0" d="M151.1,116.6H53.7l3.9-13.4h86.5c3.3,0,6.1-2.3,6.7-5.5l24.1-65.4c.7-3.7-1.7-7.4-5.4-8.1-.4,0-.9-.1-1.3-.1h-.7v-.2H33.3l-6.6-18.1C26.1,2.5,23.2,0,19.8,0H6.6C2.8.2-.1,3.4,0,7.2c.1,3.6,3,6.5,6.6,6.6h7.3l30.6,82.2-6.7,26.2c-1.1,4.3,1.6,8.7,5.9,9.8,0,0,0,0,0,0,.2,0,.5.1.7.1h106.6c4-.7,7-4.2,6.9-8.3,0-3.9-3-7-6.9-7.2ZM38.6,38.4h119l-19.1,51.1H57.4l-18.8-51.1Z"/>
  <path id="Path_105939" class="st0" d="M22.8,35.8l24.5,64.8h91.2l26.5-70.7-142.2,5.8Z"/>
</svg>