<?xml version="1.0" encoding="UTF-8"?>
<svg id="Layer_1" xmlns="http://www.w3.org/2000/svg" version="1.1" viewBox="0 0 179.7 166.2">
  <!-- Generator: Adobe Illustrator 29.5.1, SVG Export Plug-In . SVG Version: 2.1.0 Build 141)  -->
  <defs>
    <style>
      .st0 {
        fill: #231f20;
      }
    </style>
  </defs>
  <path id="Path_105927" class="st0" d="M94.8,59.9c2.8,0,5,2.2,5,5v59.9c0,2.8-2.2,5-5,5h-47c-1.3,0-2.6.5-3.5,1.5l-14.4,14.4v-10.8c0-2.8-2.2-5-5-5h-10c-2.8,0-5-2.2-5-5v-59.9c0-2.8,2.2-5,5-5h79.9ZM15,49.9C6.7,49.9,0,56.6,0,64.9h0v59.9c0,8.3,6.7,15,15,15h5v23.9c0,1.4,1.1,2.5,2.5,2.5.7,0,1.3-.3,1.8-.7l25.7-25.7h44.9c8.3,0,15-6.7,15-15v-59.9c0-8.3-6.7-15-15-15H15Z"/>
  <path id="Path_105928" class="st0" d="M119.8,62.9c0-12.7-10.3-23-23-23h-36.9V15c0-8.3,6.7-15,15-15h89.9c8.3,0,15,6.7,15,15v59.9c0,8.3-6.7,15-15,15h-15v23.9c0,1.4-1.1,2.5-2.5,2.5-.7,0-1.3-.3-1.8-.7l-25.7-25.7v-27Z"/>
</svg>