<?xml version="1.0" encoding="UTF-8"?>
<svg id="Layer_1" xmlns="http://www.w3.org/2000/svg" version="1.1" viewBox="0 0 119.4 107.7">
  <!-- Generator: Adobe Illustrator 29.5.1, SVG Export Plug-In . SVG Version: 2.1.0 Build 141)  -->
  <defs>
    <style>
      .st0 {
        fill: #231f20;
      }
    </style>
  </defs>
  <path id="Path_14156" class="st0" d="M116.7,47.1H2.7C1.2,47.1,0,45.9,0,44.4c0-.2,0-.5.1-.7L11.9,2.4C12.3,1,13.6,0,15.1,0h89.1c1.5,0,2.8,1,3.2,2.4l11.8,41.2c.4,1.4-.4,2.9-1.8,3.3-.2,0-.5.1-.7.1ZM100.1,53.8v20.2h-53.8v-20.2h-6.7v47.1h-20.2v-47.1h-6.7v47.1c0,3.7,3,6.7,6.7,6.7h80.8c3.7,0,6.7-3,6.7-6.7h0v-47.1h-6.7ZM12.6,40.4h6.7L26,6.7h-6.7l-6.7,33.7ZM41.2,40.4h6.7l3.4-33.7h-6.7l-3.4,33.7ZM68.1,6.7l3.4,33.7h6.7l-3.4-33.7h-6.7ZM100.1,6.7h-6.7l6.7,33.7h6.7l-6.7-33.7Z"/>
</svg>