<?xml version="1.0" encoding="UTF-8"?>
<svg id="Layer_1" xmlns="http://www.w3.org/2000/svg" xmlns:xlink="http://www.w3.org/1999/xlink" version="1.1" viewBox="0 0 62.4 98.6">
  <!-- Generator: Adobe Illustrator 29.5.1, SVG Export Plug-In . SVG Version: 2.1.0 Build 141)  -->
  <defs>
    <style>
      .st0 {
        fill: none;
      }

      .st1 {
        fill: #231f20;
      }

      .st2 {
        fill: #fff;
      }

      .st3 {
        clip-path: url(#clippath);
      }
    </style>
    <clipPath id="clippath">
      <rect class="st0" x=".8" y="0" width="61.6" height="98.6"/>
    </clipPath>
  </defs>
  <g class="st3">
    <g id="Group_181769">
      <path id="Path_105921" class="st1" d="M31.6,0C25.3,28.4.8,43.9.8,67.8c.2,17,14.2,30.6,31.2,30.4,16.7-.2,30.2-13.7,30.4-30.4C62.4,43.9,37.9,28.4,31.6,0"/>
      <path id="Path_105922" class="st2" d="M21,37.3c-7.5,11.3-12.6,19.8-12.6,30.6.2,8,4.4,15.3,11.1,19.7,2,1.3,4.8,1.8,6-.6s.3-4.4-1.6-5.6c-1.5-1-22.3-11.1-2.8-44.1"/>
    </g>
  </g>
</svg>