<?xml version="1.0" encoding="UTF-8"?>
<svg id="Layer_1" xmlns="http://www.w3.org/2000/svg" xmlns:xlink="http://www.w3.org/1999/xlink" version="1.1" viewBox="0 0 178 190.7">
  <!-- Generator: Adobe Illustrator 29.5.1, SVG Export Plug-In . SVG Version: 2.1.0 Build 141)  -->
  <defs>
    <style>
      .st0 {
        fill: none;
      }

      .st1 {
        fill: #231f20;
      }

      .st2 {
        clip-path: url(#clippath);
      }
    </style>
    <clipPath id="clippath">
      <rect class="st0" width="178" height="190.7"/>
    </clipPath>
  </defs>
  <g class="st2">
    <g id="Group_181773">
      <path id="Path_105934" class="st1" d="M120.8,171.7h-21.3c9.3-6.5,14.9-17.2,14.9-28.6v-31.8c0-1.8-1.4-3.2-3.2-3.2H35c-1.8,0-3.2,1.4-3.2,3.2v3.2h-7.9c-9.7,0-17.5,7.8-17.5,17.5,0,17.4,19.6,25.8,29.2,26.9,2.6,5.1,6.4,9.5,11.1,12.9H3.2c-1.8,0-3.2,1.4-3.2,3.2v12.7c0,1.8,1.4,3.2,3.2,3.2h165.3c5.3,0,9.5-4.3,9.5-9.5V63.6h-57.2v108.1ZM12.7,131.9c0-6.1,5-11.1,11.1-11.1h7.9v22.3c0,3,.4,5.9,1.2,8.8-7.9-2.1-20.2-8.5-20.2-19.9"/>
      <path id="Path_105935" class="st1" d="M22.3,25.4c-1.8,0-3.2,1.4-3.2,3.2s1.4,3.2,3.2,3.2,3.2-1.4,3.2-3.2-1.4-3.2-3.2-3.2"/>
      <path id="Path_105936" class="st1" d="M47.7,25.4c-1.8,0-3.2,1.4-3.2,3.2s1.4,3.2,3.2,3.2,3.2-1.4,3.2-3.2-1.4-3.2-3.2-3.2"/>
      <path id="Path_105937" class="st1" d="M73.1,25.4c-1.8,0-3.2,1.4-3.2,3.2s1.4,3.2,3.2,3.2,3.2-1.4,3.2-3.2-1.4-3.2-3.2-3.2"/>
      <path id="Path_105938" class="st1" d="M168.5,0H9.5C4.3,0,0,4.3,0,9.5v38.1c0,5.3,4.3,9.5,9.5,9.5h35v19.1l-2.5,1.6,2.5-1.6v3.2c0,1.8,1.4,3.2,3.2,3.2h9.5v9.5c0,1.8,1.4,3.2,3.2,3.2h25.4c1.8,0,3.2-1.4,3.2-3.2v-9.5h9.5c1.8,0,3.2-1.4,3.2-3.2v-22.3h73.1c1.8,0,3.2-1.4,3.2-3.2V9.5c0-5.3-4.3-9.5-9.5-9.5M22.3,38.1c-5.3,0-9.5-4.3-9.5-9.5s4.3-9.5,9.5-9.5,9.5,4.3,9.5,9.5-4.3,9.5-9.5,9.5M47.7,38.1c-5.3,0-9.5-4.3-9.5-9.5s4.3-9.5,9.5-9.5,9.5,4.3,9.5,9.5-4.3,9.5-9.5,9.5M73.1,38.1c-5.3,0-9.5-4.3-9.5-9.5s4.3-9.5,9.5-9.5,9.5,4.3,9.5,9.5-4.3,9.5-9.5,9.5M155.8,44.5h-19.1c-1.8,0-3.2-1.4-3.2-3.2s1.4-3.2,3.2-3.2h19.1c1.8,0,3.2,1.4,3.2,3.2s-1.4,3.2-3.2,3.2M155.8,31.8h-19.1c-1.8,0-3.2-1.4-3.2-3.2s1.4-3.2,3.2-3.2h19.1c1.8,0,3.2,1.4,3.2,3.2s-1.4,3.2-3.2,3.2M155.8,19.1h-19.1c-1.8,0-3.2-1.4-3.2-3.2s1.4-3.2,3.2-3.2h19.1c1.8,0,3.2,1.4,3.2,3.2s-1.4,3.2-3.2,3.2"/>
    </g>
  </g>
</svg>