<?xml version="1.0" encoding="UTF-8"?>
<svg id="Layer_1" xmlns="http://www.w3.org/2000/svg" xmlns:xlink="http://www.w3.org/1999/xlink" version="1.1" viewBox="0 0 105.2 138.9">
  <!-- Generator: Adobe Illustrator 29.5.1, SVG Export Plug-In . SVG Version: 2.1.0 Build 141)  -->
  <defs>
    <style>
      .st0 {
        fill: none;
      }

      .st1 {
        fill: #231f20;
      }

      .st2 {
        clip-path: url(#clippath);
      }
    </style>
    <clipPath id="clippath">
      <rect class="st0" width="104.1" height="138.9"/>
    </clipPath>
  </defs>
  <g class="st2">
    <g id="Group_181767">
      <path id="Path_105918" class="st1" d="M61,79.5l-6.6-3.8L97,1.9c1.1-1.8,3.4-2.4,5.2-1.4,1.8,1.1,2.4,3.4,1.4,5.2h0l-42.6,73.8Z"/>
      <path id="Path_105919" class="st1" d="M57.5,91.9l-13-7.5,3.8-6.6c.7-1.3,2.4-1.7,3.7-1l8.3,4.8c1.3.7,1.7,2.4,1,3.7h0l-3.8,6.6Z"/>
      <path id="Path_105920" class="st1" d="M44.1,86.5c-2.5,2.9-20,22.5-43.9,14.8,0,0-.1,0-.2,0,0,0,0,0,0,0,1.7,3.5,3.7,6.9,6,10.2,7.2.1,19-.6,23.9-6-5.6,5.7-12.9,9.3-20.7,10.4,3.2,4.1,6.7,7.8,10.6,11.2,5.7-2.3,10.8-5.9,14.9-10.4.6-.8,1-1.3,1-1.3-.3.5-.6.9-1,1.3-3.5,4.7-7.4,9.1-11.8,13,4.8,3.8,10.1,6.8,15.7,9.1.2,0,.5,0,.7,0,3.3-1.9,30.3-18.5,17.1-45.2l-12.3-7.1Z"/>
    </g>
  </g>
</svg>